<svg width="50" height="50" viewBox="0 0 50 50" xmlns="http://www.w3.org/2000/svg"><g fill="none" fill-rule="evenodd"><g><g><path d="M38.03 35.893c.35-.305.694-.624 1.027-.958 7.722-7.72 7.69-20.273-.072-28.035-7.76-7.76-20.313-7.793-28.035-.072-7.554 7.554-7.687 19.73-.422 27.523l-.01.01 14.523 14.522 12.99-12.99z" stroke="#fff" stroke-width="2" fill="#C52D2F"/><path d="M17.526 13.34c-.165-2.205 1.485-3.992 3.706-3.992h7.543c2.212 0 3.87 1.79 3.706 3.992l-1.13 15.084c-.164 2.205-2.083 3.992-4.292 3.992H22.95c-2.206 0-4.13-1.79-4.294-3.992l-1.13-15.084zm1.616-.34c-.074-1.107.764-2.005 1.868-2.005h7.96c1.105 0 1.94.9 1.867 2.005l-1.06 15.763c-.075 1.108-1.027 2.005-2.13 2.005h-5.314c-1.103 0-2.057-.9-2.13-2.005L19.142 13zm9.647 5.897l-.663 9.754c-.03.415-.39.738-.827.738h-4.52c-.435 0-.797-.323-.826-.737l-.694-10.2c-.02-.316.16-.616.464-.74.273-.11.618-.188 1.056-.188 1.614 0 2.948.627 4.257.627.263 0 .652-.058 1.022-.04.43.02.758.378.73.787z" fill="#fff"/></g></g></g></svg>