<svg width="50" height="50" viewBox="0 0 50 50" xmlns="http://www.w3.org/2000/svg"><g fill="none" fill-rule="evenodd"><g><g><path d="M40.307 34.237c7.488-7.992 7.366-20.506-.39-28.263-7.918-7.917-20.79-7.88-28.752.08-7.814 7.815-7.994 20.36-.513 28.307l-.006.007L25.458 49.18l14.896-14.896-.047-.047z" stroke="#fff" stroke-width="2" fill="#C52D2F"/><path d="M26.372 8.832c0 1.536 2.115 2.157 2.115 3.876 0 1.65-1.03 2.59-1.666 3.013-.146.097-.328-.06-.257-.22.207-.48.48-1.215.48-1.76 0-1.546-2.074-1.672-2.074-3.635-.048-1.26.684-2.353 1.38-2.848.125-.118.324.01.273.172-.123.384-.25.906-.25 1.402zm-2.955 1.374c.032-.197-.218-.304-.342-.147-.287.363-.597.887-.597 1.45 0 1.3 1.305 1.41 1.305 2.392 0 .217-.07.492-.148.738-.062.19.17.34.315.203.35-.336.74-.88.74-1.633 0-.91-1.33-1.643-1.33-2.44 0-.16.026-.366.057-.564zm13.91 11.247c0 2.89-2.52 5.687-6.194 5.185-.222-.03-.443.04-.598.202-.26.273-.534.54-.832.797-.358.242-.624.4-1.052.388h-6.897c-.43.012-.696-.146-1.053-.388-4.255-3.673-4.757-8.987-4.757-9.54 0-.552.348-1.05.917-1.05h16.683c.475 0 .858.35.91.935.02.22.172.406.384.46 1.057.274 2.49 1.01 2.49 3.01zm-4.602 3.82C34.54 24.932 36 23.37 36 21.362c0-.846-.458-1.26-.98-1.457-.4-.15-.843.09-.95.507-.31 1.184-.85 2.683-1.784 4.184-.198.318.072.744.44.675zm1.73 3.75H15.948c-.255 0-.46.207-.46.462 0 .212.142.404.346.456 1.048.352 1.882.57 3.344.854.15.04.302.057.455.057h11.127c.154 0 .306-.017.455-.056 1.308-.275 2.426-.507 3.35-.853.204-.05.346-.243.346-.455 0-.255-.206-.462-.46-.462z" fill="#fff"/></g></g></g></svg>