<?xml version="1.0" encoding="UTF-8" standalone="no"?>
<svg width="28px" height="15px" viewBox="0 0 28 15" version="1.1" xmlns="http://www.w3.org/2000/svg" xmlns:xlink="http://www.w3.org/1999/xlink">
    <defs></defs>
    <g id="Page-1" stroke="none" stroke-width="1" fill="none" fill-rule="evenodd">
        <g id="explore" fill="#FFFFFF">
            <path d="M19.7678391,1.93231281 C17.3702075,-0.461371405 13.5752075,-1.0645293 10.5057339,0.716523332 C6.2204707,3.20336544 5.32126017,9.13231281 8.92994438,12.7544181 C12.5717865,16.3828391 18.495997,15.4615233 20.9757339,11.1865233 C22.7567865,8.11704965 22.1615233,4.32994438 19.7678391,1.93231281 L19.7678391,1.93231281 Z M19.0794181,10.5004707 C18.8781023,10.7965233 18.4628391,10.8762602 18.1478391,10.7065233 C17.8044181,10.520997 17.5115233,10.7965233 17.7088918,11.1557339 C17.8794181,11.465997 17.7981023,11.8717865 17.5036286,12.0683654 C15.3254707,13.522576 12.3349444,13.3615233 10.3241549,11.3602075 C8.35441807,9.38178649 8.15231281,6.39283912 9.62389175,4.1886286 C9.8204707,3.89415491 10.2262602,3.81283912 10.5365233,3.98336544 C10.8957339,4.18073386 11.1712602,3.88783912 10.9857339,3.54441807 C10.815997,3.22941807 10.8933654,2.81810228 11.1894181,2.61757596 C13.7181023,1.04257596 16.5854707,1.54310228 18.3657339,3.3186286 C20.1412602,5.09968123 20.6749444,7.9204707 19.0794181,10.5004707 L19.0794181,10.5004707 Z M17.2036286,3.99757596 L13.5862602,6.09599702 C13.3912602,6.20968123 13.2286286,6.37231281 13.1149444,6.56810228 L10.997576,10.2170496 C10.8144181,10.5320496 11.1681023,10.8857339 11.4831023,10.702576 L15.0996812,8.60415491 C15.2954707,8.49126017 15.4581023,8.32783912 15.5717865,8.13283912 L17.6891549,4.48310228 C17.8723128,4.16810228 17.5186286,3.81441807 17.2036286,3.99757596 L17.2036286,3.99757596 Z M14.3781023,7.91968123 C14.0591549,7.93310228 13.7907339,7.68520754 13.7781023,7.36704965 C13.7646812,7.04889175 14.0117865,6.7804707 14.3299444,6.76783912 C14.6481023,6.75441807 14.9173128,7.00152333 14.9299444,7.31968123 C14.9433654,7.63783912 14.6962602,7.90704965 14.3781023,7.91968123 L14.3781023,7.91968123 Z" id="compass"></path>
        </g>
    </g>
</svg>