<svg width="50" height="50" viewBox="0 0 50 50" xmlns="http://www.w3.org/2000/svg"><g fill="none" fill-rule="evenodd"><g><g><path d="M38.324 35.8c.356-.31.703-.633 1.04-.97 7.82-7.82 7.787-20.53-.072-28.39-7.86-7.86-20.57-7.893-28.39-.073-7.65 7.65-7.784 19.98-.428 27.87l-.01.01L25.172 48.95 38.325 35.8z" stroke="#fff" stroke-width="2" fill="#C52D2F"/><path d="M30.814 10.257l-4.565.31c-.5.036-.973.256-1.327.62L15.475 20.9c-.54.554-.54 1.45 0 2.005l7.414 7.623c.538.553 1.41.553 1.95 0l9.45-9.714c.353-.364.567-.85.6-1.363l.303-4.692c.035-.548-.162-1.086-.54-1.475l-2.403-2.47c-.38-.39-.902-.592-1.436-.556zm1.236 5.665c-.693.712-1.815.712-2.507 0-.692-.712-.692-1.866 0-2.578.692-.71 1.814-.71 2.507 0 .693.712.693 1.866 0 2.578z" fill="#fff"/></g></g></g></svg>