<?xml version="1.0" encoding="UTF-8" standalone="no"?>
<svg width="28px" height="15px" viewBox="0 0 28 15" version="1.1" xmlns="http://www.w3.org/2000/svg" xmlns:xlink="http://www.w3.org/1999/xlink">
    <defs></defs>
    <g id="Page-1" stroke="none" stroke-width="1" fill="none" fill-rule="evenodd">
        <g id="health" fill="#FFFFFF">
            <path d="M8.35812152,3.40520684 L8.35812152,14.5208433 C8.35812152,14.7859767 8.14206747,15 7.87621657,15 L7.19351791,15 C6.53411131,15 6,14.4689347 6,13.8132886 L6,4.11276154 C6,3.45711548 6.53411131,2.92605015 7.19351791,2.92605015 L7.87621657,2.92605015 C8.14206747,2.92605015 8.35812152,3.14087207 8.35812152,3.40520684 L8.35812152,3.40520684 Z M20.6426817,3.40520684 L20.6426817,14.5208433 C20.6426817,14.7859767 20.8579325,15 21.1245866,15 L21.8064821,15 C22.4658887,15 23,14.4689347 23,13.8132886 L23,4.11276154 C23,3.45711548 22.4658887,2.92605015 21.8064821,2.92605015 L21.1245866,2.92605015 C20.8579325,2.92605015 20.6426817,3.14087207 20.6426817,3.40520684 L20.6426817,3.40520684 Z M19.6146178,3.40840121 L19.6146178,14.5208433 C19.6146178,14.7859767 19.3993669,15 19.1327128,15 L9.86728716,15 C9.60143627,15 9.38538222,14.7859767 9.38538222,14.5208433 L9.38538222,3.40840121 C9.38538222,3.14246925 9.60223944,2.92605015 9.87049986,2.92605015 L10.4094302,2.92605015 C10.5411509,2.92605015 10.6479732,2.81983709 10.6479732,2.68886759 L10.6479732,2.05797796 C10.6479732,0.921578023 11.574837,0 12.7177549,0 L16.2758197,0 C17.4187376,0 18.3456014,0.921578023 18.3456014,2.05797796 L18.3456014,2.68886759 C18.3456014,2.81983709 18.4524237,2.92605015 18.5841444,2.92605015 L19.1295001,2.92605015 C19.3977606,2.92605015 19.6146178,3.14246925 19.6146178,3.40840121 L19.6146178,3.40840121 Z M12.0205991,2.68886759 C12.0205991,2.81983709 12.1274213,2.92605015 12.259142,2.92605015 L16.7681659,2.92605015 C16.8998866,2.92605015 17.0067089,2.81983709 17.0067089,2.68886759 L17.0067089,2.01884683 C17.0067089,1.6331257 16.6918643,1.32007667 16.3039308,1.32007667 L12.7233771,1.32007667 C12.3346405,1.32007667 12.0205991,1.6331257 12.0205991,2.01884683 L12.0205991,2.68886759 L12.0205991,2.68886759 Z M17.3255693,8.70308257 C17.3255693,8.47069158 17.13602,8.28302188 16.9030993,8.28302188 L15.5979401,8.28302188 C15.3650194,8.28302188 15.1754701,8.09455359 15.1754701,7.86296119 L15.1754701,6.56524517 C15.1754701,6.33285418 14.9859208,6.14518448 14.7530001,6.14518448 L14.242984,6.14518448 C14.0092601,6.14518448 13.8197109,6.33285418 13.8197109,6.56524517 L13.8197109,7.86296119 C13.8197109,8.09455359 13.6309648,8.28302188 13.3972409,8.28302188 L12.0920816,8.28302188 C11.8591609,8.28302188 11.6696116,8.47069158 11.6696116,8.70308257 L11.6696116,9.21019007 C11.6696116,9.44258106 11.8591609,9.63025076 12.0920816,9.63025076 L13.3972409,9.63025076 C13.6309648,9.63025076 13.8197109,9.81871905 13.8197109,10.0503115 L13.8197109,11.3480275 C13.8197109,11.5804185 14.0092601,11.7688868 14.242984,11.7688868 L14.7530001,11.7688868 C14.9859208,11.7688868 15.1754701,11.5804185 15.1754701,11.3480275 L15.1754701,10.0503115 C15.1754701,9.81871905 15.3650194,9.63025076 15.5979401,9.63025076 L16.9030993,9.63025076 C17.13602,9.63025076 17.3255693,9.44258106 17.3255693,9.21019007 L17.3255693,8.70308257 L17.3255693,8.70308257 Z" id="firstaid"></path>
        </g>
    </g>
</svg>