<?xml version="1.0" encoding="UTF-8" standalone="no"?>
<svg width="20px" height="20px" viewBox="0 0 20 20" version="1.1" xmlns="http://www.w3.org/2000/svg" xmlns:xlink="http://www.w3.org/1999/xlink">
    <defs></defs>
    <g id="Page-1" stroke="none" stroke-width="1" fill="none" fill-rule="evenodd">
        <g id="icon-weed" fill="#FFFFFF">
            <path d="M10.69147,16.9721068 C13.0941977,16.7238116 15.3932242,17.3177752 16.9463038,18.2378602 C14.5416607,18.6690576 12.3582643,18.1054503 10.69147,17.3508789 L10.69147,20.7934141 L9.30853003,20.7934141 L9.30853003,17.424921 C7.62625554,18.1773062 5.54309841,18.7056423 3.09043077,18.2970707 C4.65342885,17.4033089 6.76247773,16.7791525 9.30853003,17.0216176 L9.30853003,17.0108918 C5.92303174,16.497479 3.54576289,15.2356966 1.43192196,13.3231833 C1.37619443,13.2725778 1.02379972,13.2152112 1.19528482,13.0269259 C4.67855927,13.5122753 7.35040204,14.8080516 9.48246372,16.6445943 L9.48428368,16.6445943 C6.46843915,13.9477065 3.68565734,10.5169125 2.61633696,5.68461832 C2.87899394,5.63073471 2.98819533,5.95014363 3.14943639,6.09929674 C4.4586237,7.30747789 5.87598799,8.63633374 6.93911365,10.1846168 C8.18437819,11.99863 9.00963742,14.1681111 9.7814228,16.4027443 C9.26348454,13.6839781 8.33414594,10.625315 8.4785868,7.34251248 C8.59700781,4.65017595 9.48741908,2.24098447 10.0180599,0 C10.6917075,2.33830278 11.3731405,4.93270636 11.4987324,7.69777552 C11.6343633,10.6941549 10.6619998,14.0419046 10.1958963,16.343124 L10.1958963,16.461545 C11.4655417,11.9875664 14.0386377,7.98788651 17.4791983,5.68461832 C16.2070342,10.3942111 13.6669458,13.8364864 10.4934901,16.6445943 L10.4977607,16.6445943 C12.6749937,14.854457 15.1519709,13.3646544 18.84104,13.0863413 C18.9305728,13.3444909 18.4161175,13.521098 18.1305139,13.7376569 C16.1946485,15.2071091 13.7987579,16.5557605 10.69147,16.9694882 L10.69147,16.9721068 Z" id="Leaf"></path>
        </g>
    </g>
</svg>