<?xml version="1.0" encoding="UTF-8" standalone="no"?>
<svg width="20px" height="20px" viewBox="0 0 20 20" version="1.1" xmlns="http://www.w3.org/2000/svg" xmlns:xlink="http://www.w3.org/1999/xlink">
    <defs></defs>
    <g id="Page-1" stroke="none" stroke-width="1" fill="none" fill-rule="evenodd">
        <g id="icon-oxygen" fill="#FFFFFF">
            <path d="M12.8285259,2.8000311 C12.8285259,1.80592111 13.6344081,1.00003888 14.6285181,1.00003888 C15.6226281,1.00003888 16.4285103,1.80592111 16.4285103,2.8000311 C16.4285103,3.79414109 15.6226281,4.60002333 14.6285181,4.60002333 C13.6344081,4.60002333 12.8285259,3.79414109 12.8285259,2.8000311 L12.8285259,2.8000311 Z M18.1647314,8.21903626 C17.5126199,8.09355109 15.468343,7.51292503 14.6521751,6.51932932 C14.2921767,6.07961693 13.6441795,6.01584578 13.2049814,6.37687279 C12.765269,6.73687124 12.7014978,7.38486844 13.0620106,7.82406654 C14.492233,9.56748758 17.4462773,10.1753707 17.7779902,10.2386275 C17.8433042,10.2514846 17.9081039,10.2571417 17.9723893,10.2571417 C18.4558158,10.2571417 18.8872997,9.91462894 18.9814136,9.42194535 C19.0883845,8.86446205 18.722729,8.32549295 18.1647314,8.21903626 L18.1647314,8.21903626 Z M1.97200132,16.2922585 C2.09902934,16.2989442 2.23325733,16.3025442 2.37417101,16.3025442 C4.56296156,16.3025442 8.29511686,15.4035767 9.03568509,11.8668491 C9.15191316,11.3109086 8.7955147,10.7657681 8.23957425,10.6490258 C7.68054809,10.5353691 7.13900757,10.8897104 7.02175093,11.4451366 C6.39895362,14.4197523 2.25640009,14.2464388 2.08565797,14.2382103 C1.50606047,14.2099247 1.03291966,14.6408942 1.00154837,15.2081489 C0.970691358,15.7759179 1.40474663,16.2608872 1.97200132,16.2922585 L1.97200132,16.2922585 Z M4.13302056,5.97624595 C5.05718799,5.37401998 7.81529036,4.53059505 10.0776234,5.35396293 C8.87522864,6.96109884 8.42060203,8.19383637 8.61602976,9.26663174 C8.85980014,10.6073688 10.0359665,11.2563946 10.9812195,11.7773638 C11.9095013,12.2901044 12.4824131,12.6434172 12.6176696,13.2302146 C12.750869,13.8092978 12.5580127,14.9988356 10.8799057,17.3789396 C10.5523071,17.8433375 10.6639066,18.4846491 11.1283046,18.8122476 C11.3083038,18.9392757 11.5145315,18.9999611 11.7197306,18.9999611 C12.043215,18.9999611 12.3610422,18.8482475 12.5616127,18.564363 C14.3076052,16.0865451 14.9622881,14.2448959 14.6223467,12.768388 C14.2716053,11.2435375 12.9982394,10.5410262 11.9753295,9.97685724 C11.3237324,9.61737308 10.7086493,9.27794598 10.6397353,8.89789047 C10.5903641,8.62789164 10.6685352,7.77366676 12.4505275,5.68413293 C12.6402981,5.46144818 12.7266977,5.16882087 12.6870979,4.8782507 C12.6474981,4.58870909 12.4870416,4.32899592 12.2448141,4.16545377 C9.09328484,2.02860586 4.67507536,3.16825808 3.01033969,4.25288197 C2.53411318,4.56248063 2.39988518,5.20019216 2.70999813,5.67590439 C3.02011108,6.15213091 3.65679404,6.28738747 4.13302056,5.97624595 L4.13302056,5.97624595 Z" id="Treadmill"></path>
        </g>
    </g>
</svg>