<svg width="50" height="50" viewBox="0 0 50 50" xmlns="http://www.w3.org/2000/svg"><g fill="none" fill-rule="evenodd"><path d="M40.26 34.202c7.477-7.978 7.4-20.43-.292-28.123-7.85-7.85-20.66-7.77-28.61.18-7.82 7.82-8.028 20.34-.563 28.22l-.005.004 14.688 14.69 14.876-14.877-.095-.096z" stroke="#fff" stroke-width="2" fill="#C52D2F"/><path d="M29.592 11.314c0-1.312 1.05-2.376 2.346-2.376 1.295 0 2.345 1.064 2.345 2.376 0 1.31-1.05 2.375-2.345 2.375-1.295 0-2.346-1.066-2.346-2.377zm6.953 7.15c-.85-.165-3.513-.93-4.576-2.242-.47-.58-1.316-.665-1.888-.188-.573.475-.656 1.33-.186 1.91 1.863 2.3 5.712 3.102 6.144 3.186.086.016.17.024.255.024.63 0 1.192-.452 1.314-1.102.14-.736-.34-1.447-1.066-1.587zM15.447 29.12c.165.01.34.013.524.013 2.854 0 7.717-1.185 8.68-5.852.153-.732-.31-1.452-1.036-1.606-.728-.15-1.434.32-1.586 1.052-.812 3.925-6.21 3.696-6.432 3.685-.755-.036-1.372.533-1.412 1.28-.04.75.525 1.39 1.264 1.43zm2.816-13.613c1.204-.795 4.797-1.908 7.745-.82-1.566 2.12-2.16 3.746-1.904 5.162.317 1.77 1.85 2.625 3.082 3.312 1.21.677 1.956 1.143 2.132 1.917.173.763-.078 2.333-2.264 5.474-.427.613-.282 1.46.323 1.89.235.17.503.25.77.25.422 0 .836-.2 1.098-.576 2.275-3.27 3.128-5.7 2.685-7.648-.457-2.012-2.116-2.94-3.45-3.684-.848-.474-1.65-.922-1.74-1.424-.064-.356.038-1.483 2.36-4.24.247-.294.36-.68.308-1.064-.05-.382-.26-.725-.576-.94-4.106-2.82-9.863-1.316-12.032.115-.62.41-.796 1.25-.39 1.88.403.627 1.232.806 1.853.395z" fill="#fff"/></g></svg>