<svg width="50" height="50" viewBox="0 0 50 50" xmlns="http://www.w3.org/2000/svg"><g fill="none" fill-rule="evenodd"><path d="M38.78 34.337c7.352-7.848 7.213-20.156-.428-27.797-7.798-7.8-20.458-7.783-28.276.035-7.666 7.666-7.83 19.988-.482 27.816l-.007.01 14.59 14.59 14.63-14.627-.026-.025z" id="Shape" stroke="#C52D2F" stroke-width="2" fill="#fff"/><g fill="#C52D2F"><path d="M21.077 33.71c-.8 0-1.45.328-1.885.437-.238.066-.93.262-1.494 0-.11-.043-.456-.065-.042.394.107.13.323.262.583.393 1.386.676 2.62.392 4.116-.285.368-.173.974-.152.974-.35-.02-.194-.324-.325-.54-.63-.824-1.18-1.842-2.16-3.077-2.62-.65-.26-.954-.064-.76.11.478.46.716 1.31 1.345 2.03.195.218.476.436.78.522M23.202 33.078c0-.458.692-1.156.822-1.57.152.414.824 1.11.824 1.57 0 .458-.37.83-.824.83-.454 0-.822-.372-.822-.83M23.202 35.348c0 .458.692 1.177.822 1.592.152-.415.824-1.134.824-1.592 0-.46-.37-.83-.824-.83-.454 0-.822.37-.822.83M16.98 31.987c-.734-.26-1.428-.196-1.883-.24-.24-.043-.91-.065-1.344-.48-.086-.086-.39-.24-.172.35.044.13.195.306.39.523 1.062 1.09 2.276 1.244 3.836 1.113.412-.022 1.083.13 1.127-.065.043-.175-.282-.35-.39-.677-.37-1.352-.954-2.595-1.928-3.425-.5-.435-.867-.348-.74-.13.284.568.22 1.42.565 2.29.11.262.303.546.54.742M13.624 28.912c-.586-.46-1.258-.59-1.647-.742-.24-.11-.823-.328-1.105-.83-.064-.108-.303-.327-.282.26.022.134.11.35.24.636.65 1.263 1.732 1.766 3.206 2.072.368.11.954.415 1.04.262.107-.132-.173-.393-.152-.743.022-1.33-.173-2.64-.844-3.664-.305-.568-.673-.59-.608-.327.086.59-.195 1.352-.13 2.246.022.284.13.59.282.83M11.586 25.203c-.41-.59-.973-.917-1.277-1.18-.196-.152-.673-.544-.76-1.09-.043-.11-.194-.37-.347.175 0 .13 0 .35.044.633.216 1.375 1.062 2.14 2.296 2.86.326.217.758.653.89.566.128-.11-.045-.415.064-.72.433-1.22.628-2.487.326-3.622-.13-.61-.457-.72-.457-.48-.107.567-.584 1.18-.78 2.03-.064.238-.064.567 0 .83M10.894 20.992c-.153-.633-.565-1.113-.737-1.462-.087-.197-.39-.7-.283-1.22 0-.09-.043-.395-.346.043-.065.108-.13.325-.195.566-.26 1.265.238 2.225 1.062 3.294.218.283.434.85.564.785.15-.045.128-.372.323-.59.76-.938 1.365-1.986 1.452-3.076.087-.568-.152-.81-.215-.59-.283.48-.933.85-1.345 1.528-.15.174-.28.48-.28.72M11.435 17.042c0-.632-.238-1.177-.325-1.526-.042-.22-.174-.743.044-1.18.02-.108.043-.39-.347-.064-.066.087-.175.26-.303.48-.543 1.09-.326 2.116.172 3.295.132.305.196.872.326.85.152 0 .217-.306.433-.48.93-.675 1.734-1.462 2.102-2.443.216-.502.044-.786-.065-.612-.37.37-1.04.546-1.603 1.092-.196.11-.37.37-.435.588M12.995 13.53c.195-.61.108-1.2.13-1.57 0-.22.022-.765.347-1.135.065-.066.152-.328-.282-.132-.108.043-.26.175-.433.372-.844.894-.91 1.942-.76 3.207.045.35-.042.895.09.917.15.04.28-.243.56-.35 1.063-.372 2.06-.917 2.666-1.747.347-.436.283-.74.108-.61-.453.24-1.147.24-1.84.587-.216.067-.454.264-.585.46M15.4 10.737c.35-.46.477-.96.585-1.265.086-.153.26-.612.65-.785.087-.066.24-.262-.194-.218-.086 0-.28.064-.476.15-.954.48-1.343 1.31-1.625 2.4-.066.285-.304.72-.196.787.108.065.304-.11.543-.11 1.017.022 2.014-.108 2.75-.61.413-.24.454-.503.282-.458-.455.064-1.02-.154-1.692-.11-.216 0-.455.086-.627.217M18.13 8.883c.37-.306.563-.72.738-.96.086-.11.324-.48.692-.567.086-.022.238-.174-.13-.22-.087-.02-.238 0-.433.046-.91.217-1.41.872-1.84 1.788-.11.218-.414.567-.304.633.064.065.28-.066.497 0 .845.218 1.734.284 2.47-.022.39-.13.477-.348.325-.327-.41-.043-.845-.326-1.452-.414-.17-.044-.41-.023-.563.043M22.378 7.42c-.28.612-.998.807-1.215.874-.173.065-.91.26-1.45-.11.28-.61.995-.806 1.19-.873.196-.04.912-.26 1.475.11M28.49 13.64c.476.173.887-.045 1.06-.438.087-.173.13-.283.13-.457h.63v5.127h-.455c-.78-2.14-2.73-4.212-5.007-4.713-2.253-.35-4.875-.307-6.175 1.68-.37.543-.174 1.657.52 2.05 2.318 1.418 4.853.763 7.932 1.2 1.558.218 3.27 1.112 3.963 2.858.674 1.68.543 3.403-.13 4.538-1.58 2.726-4.527 2.99-6.414 2.99-1.972 0-3.944-.918-5.504-1.486-.476-.172-.888.045-1.06.438-.09.174-.132.306-.132.458h-.627v-5.41c.174 0 .368 0 .628.02.607 2.488 2.557 4.322 4.508 4.888 2.254.676 4.506.567 6.262-.676.694-.48.954-1.527.694-2.443-.39-1.376-2.494-1.746-4.01-1.768-3.25-.087-7.192-.043-8.363-3.644-.456-1.723-.174-3.62 1.06-4.908 2.038-2.008 5.46-2.072 8.06-1.266.934.195 1.56.696 2.43.96M26.97 33.71c.803 0 1.453.328 1.908.437.24.066.91.262 1.476 0 .107-.043.454-.065.04.394-.108.13-.324.262-.583.393-1.387.676-2.62.392-4.093-.285-.392-.173-1-.152-.978-.35 0-.194.302-.325.52-.63.824-1.18 1.843-2.16 3.078-2.62.648-.26.954-.064.758.11-.477.46-.694 1.31-1.343 2.03-.195.218-.48.436-.782.522M31.068 31.987c.735-.26 1.43-.196 1.884-.24.24-.043.932-.065 1.344-.48.087-.086.39-.24.173.35-.045.13-.196.306-.39.523-1.063 1.09-2.277 1.244-3.837 1.113-.41-.022-1.062.13-1.126-.065-.043-.175.283-.35.39-.677.37-1.352.954-2.595 1.93-3.425.497-.435.864-.348.736-.13-.282.568-.218 1.42-.563 2.29-.11.262-.303.546-.542.742M34.424 28.912c.587-.46 1.258-.59 1.65-.742.237-.11.844-.328 1.104-.83.065-.108.303-.327.283.26-.022.134-.107.35-.238.636-.65 1.263-1.734 1.766-3.21 2.072-.366.11-.952.415-1.036.262-.088-.132.172-.393.15-.743-.022-1.33.173-2.64.844-3.664.326-.568.673-.59.61-.327-.09.59.19 1.352.128 2.246-.022.284-.13.59-.284.83M36.464 25.203c.41-.59.974-.917 1.3-1.18.173-.152.65-.544.758-1.09.02-.11.173-.37.324.175.024.13 0 .35-.02.633-.217 1.375-1.086 2.14-2.32 2.86-.325.217-.757.653-.866.566-.13-.11.022-.415-.086-.72-.413-1.22-.63-2.487-.328-3.622.152-.61.456-.72.456-.48.11.567.607 1.18.782 2.03.087.238.087.567 0 .83M37.158 20.992c.172-.633.562-1.113.735-1.462.087-.197.39-.7.282-1.22 0-.09.065-.395.368.043.067.108.107.325.174.566.26 1.265-.24 2.225-1.04 3.294-.24.283-.455.85-.586.785-.15-.045-.107-.372-.303-.59-.778-.938-1.365-1.986-1.472-3.076-.088-.568.152-.81.215-.59.284.48.934.85 1.345 1.528.175.174.283.48.283.72M36.636 17.042c-.02-.632.218-1.177.303-1.526.043-.22.194-.743-.022-1.18-.044-.108-.064-.39.325-.064.086.087.174.26.302.48.565 1.09.327 2.116-.15 3.295-.13.305-.217.872-.345.85-.152 0-.197-.306-.436-.48-.91-.675-1.73-1.462-2.102-2.443-.195-.502-.044-.786.088-.612.346.37 1.04.546 1.603 1.092.172.11.37.37.433.588M35.055 13.53c-.196-.61-.108-1.2-.108-1.57-.023-.22-.044-.765-.367-1.135-.044-.066-.156-.328.302-.132.085.043.236.175.412.372.844.894.91 1.942.758 3.207-.043.35.043.895-.087.917-.152.04-.283-.243-.543-.35-1.082-.372-2.08-.917-2.685-1.747-.347-.436-.26-.74-.11-.61.456.24 1.15.24 1.842.587.216.067.454.264.585.46M32.692 10.716c-.324-.46-.454-.96-.562-1.266-.087-.153-.283-.61-.65-.786-.088-.064-.24-.262.195-.218.087 0 .26.066.475.154.954.48 1.344 1.308 1.604 2.4.065.304.327.72.216.784-.108.088-.303-.11-.563-.11-.997.045-1.992-.108-2.73-.59-.434-.26-.454-.52-.303-.48.475.068 1.04-.15 1.713-.107.194 0 .455.087.605.22M29.94 8.883c-.368-.306-.563-.72-.735-.982-.088-.108-.327-.457-.695-.566-.087-.023-.24-.153.132-.197.085-.02.26 0 .432.044.91.22 1.408.873 1.842 1.77.108.238.412.565.304.63-.063.088-.283-.043-.5.023-.844.218-1.734.262-2.45-.022-.41-.13-.498-.37-.345-.348.413-.044.845-.327 1.452-.415.174-.043.41 0 .562.066M25.673 7.42c.28.612.994.807 1.213.874.172.065.91.26 1.452-.11-.283-.61-.997-.806-1.193-.873-.195-.04-.91-.26-1.472.11"/></g></g></svg>