<svg width="50" height="50" viewBox="0 0 50 50" xmlns="http://www.w3.org/2000/svg"><g fill="none" fill-rule="evenodd"><path d="M39.78 34.337c7.352-7.848 7.213-20.156-.428-27.797-7.798-7.8-20.458-7.783-28.276.035-7.666 7.666-7.83 19.988-.482 27.816l-.007.01 14.59 14.59 14.63-14.627-.026-.025z" stroke="#fff" stroke-width="2" fill="#C52D2F"/><path d="M26.195 30.215c3.47-.36 6.79.5 9.032 1.832-3.473.624-6.625-.192-9.032-1.284v4.983h-1.997V30.87c-2.43 1.09-5.438 1.854-8.98 1.263 2.258-1.294 5.303-2.198 8.98-1.847v-.015c-4.89-.74-8.322-2.57-11.374-5.337-.08-.073-.59-.156-.342-.428 5.03.702 8.888 2.578 11.967 5.237-4.354-3.904-8.373-8.87-9.917-15.865.38-.078.537.384.77.6 1.89 1.75 3.937 3.673 5.472 5.914 1.798 2.626 2.99 5.767 4.105 9-.747-3.934-2.09-8.362-1.88-13.114.17-3.898 1.456-7.385 2.222-10.63.973 3.386 1.957 7.14 2.138 11.144.196 4.337-1.208 9.183-1.88 12.514v.172c1.83-6.476 5.547-12.266 10.515-15.6-1.835 6.814-5.505 11.8-10.085 15.864h.005c3.144-2.59 6.72-4.748 12.048-5.15.13.373-.614.63-1.026.942-2.796 2.128-6.255 4.08-10.742 4.68v.003z" fill="#fff"/></g></svg>