<svg width="50" height="50" viewBox="0 0 50 50" xmlns="http://www.w3.org/2000/svg"><g fill="none" fill-rule="evenodd"><path d="M39.78 34.337c7.352-7.848 7.213-20.156-.428-27.797-7.798-7.8-20.458-7.783-28.276.035-7.666 7.666-7.83 19.988-.482 27.816l-.007.01 14.59 14.59 14.63-14.627-.026-.025z" stroke="#C52D2F" stroke-width="2" fill="#fff"/><path d="M32.884 30.462l-.453-.456c.248-.19.407-.49.407-.825 0-.57-.46-1.036-1.028-1.036-.57 0-1.03.465-1.03 1.038 0 .34.16.64.41.83l-.452.457c-.364-.31-.595-.764-.595-1.28 0-.414.15-.65.397-1.08h-.04v-5.3h-.71v11.084l.425.283v.955h-4.973v-.954l.592-.19h.12v-3.44h-1.707v3.347l.71.283v.896l-4.972.008v-.904l.448-.314L20.4 22.81h-.7v5.3h-.04c.248.43.398.664.398 1.078 0 .515-.23.973-.595 1.28l-.453-.458c.25-.188.41-.49.41-.83 0-.573-.46-1.038-1.028-1.038-.568 0-1.028.464-1.028 1.037 0 .335.16.634.405.823l-.455.456c-.36-.31-.58-.77-.58-1.28 0-.417.123-.796.407-1.09v-8.14c0-.31.257-.563.567-.563l14.784.002c.31 0 .562.25.562.564v8.14c.284.292.407.67.407 1.086 0 .514-.22.974-.58 1.282zM21.34 12.78h7.52c.31 0 .645.175.645.487v4.946c0 .31-.336.585-.646.585h-7.52c-.31 0-.646-.275-.646-.585v-4.946c0-.312.337-.487.646-.487zm6.748-1.572l-.453.65c-.574-.554-1.505-.923-2.532-.923-1.03 0-1.965.37-2.538.93l-.453-.652c.716-.65 1.79-1.063 2.99-1.063 1.198 0 2.27.41 2.986 1.058zm-.008-1.017c-.78-.592-1.826-.92-2.95-.92-1.12 0-2.17.328-2.947.92-.184.14-.347.294-.487.453l-.457-.657c.88-.91 2.294-1.5 3.89-1.5 1.56 0 2.946.563 3.83 1.436l-.454.655c-.126-.135-.27-.263-.427-.384zm-2.977-3.3c1.933 0 3.652.7 4.744 1.787l-.45.648c-.937-.995-2.512-1.65-4.294-1.65-1.786 0-3.364.657-4.3 1.656l-.45-.65c1.092-1.09 2.813-1.79 4.75-1.79z" fill="#C52D2F"/><path d="M23.17 15.77c-.27 0-.49-.222-.49-.494 0-.275.22-.495.49-.495s.49.22.49.497c0 .272-.22.494-.49.494zm0-1.46c-.528 0-.957.432-.957.966 0 .53.43.965.956.965.527 0 .956-.432.956-.963 0-.534-.43-.966-.958-.966zM27.01 15.77c-.272 0-.49-.222-.49-.494 0-.275.218-.495.49-.495.268 0 .49.22.49.497 0 .272-.222.494-.49.494zm0-1.46c-.53 0-.96.432-.96.966 0 .53.43.965.96.965.527 0 .956-.432.956-.963 0-.534-.43-.966-.957-.966z" fill="#fff"/></g></svg>