<svg width="50" height="50" viewBox="0 0 50 50" xmlns="http://www.w3.org/2000/svg"><g fill="none" fill-rule="evenodd"><g><g><path d="M39.78 34.337c7.352-7.848 7.213-20.156-.428-27.797-7.798-7.8-20.458-7.783-28.276.035-7.666 7.666-7.83 19.988-.482 27.816l-.007.008 14.59 14.592 14.63-14.628-.026-.025z" stroke="#fff" stroke-width="2" fill="#C52D2F"/><path d="M25.072 10.526c-2.013 0-3.785 1.054-4.818 2.65-3.18.01-5.754 2.65-5.754 5.902 0 3.26 2.584 5.902 5.772 5.902.748 0 1.462-.146 2.117-.41l.923 1.29-.37 5.424s.502.295 1.97.295c1.466 0 2.143-.296 2.143-.296l-.4-5.593.946-1.32c.658.267 1.375.413 2.126.413 3.188 0 5.772-2.642 5.772-5.9 0-3.25-2.57-5.887-5.743-5.903-1.048-1.486-2.756-2.454-4.685-2.454zm-.88 12.47l-.25 1.54-.812-.59c.38-.285.737-.603 1.063-.95zm1.28-.56c.414.486.883.92 1.398 1.296l-1.08.784-.318-2.08z" fill="#fff"/></g></g></g></svg>