<?xml version="1.0" encoding="UTF-8" standalone="no"?>
<svg width="32px" height="32px" viewBox="0 0 32 32" version="1.1" xmlns="http://www.w3.org/2000/svg" xmlns:xlink="http://www.w3.org/1999/xlink">
    <defs></defs>
    <g id="Page-1" stroke="none" stroke-width="1" fill="none" fill-rule="evenodd">
        <g id="Ralph-Copy" fill="#C52D2F">
            <g>
                <path d="M22.8304057,23.6573619 L22.4331427,23.2606101 C22.6493555,23.09565 22.7888839,22.835305 22.7888839,22.5424168 C22.7888839,22.0439208 22.3847629,21.6396876 21.8861267,21.6396876 C21.3876151,21.6396876 20.9834941,22.0439208 20.9834941,22.5424168 C20.9834941,22.8375493 21.1251422,23.0995153 21.3442229,23.264226 L20.9465859,23.6614766 C20.6275036,23.3931516 20.4243832,22.9980206 20.4243832,22.5492745 C20.4243832,22.1889309 20.5561807,21.9849441 20.7732664,21.6108851 L20.7382285,21.6108851 L20.7382285,16.9974907 L20.1147774,16.9974907 L20.1147774,26.643475 L20.488848,26.8892318 L20.488848,27.7205156 L16.1246902,27.7205156 L16.1246902,26.8892318 L16.6445238,26.7230249 L16.7481414,26.7230249 L16.7481414,23.7305528 L15.2518587,23.7305528 L15.2518587,26.643475 L15.8753098,26.8892318 L15.8753098,27.6688955 L11.511152,27.6761273 L11.511152,26.8892318 L11.9045496,26.6159193 L11.8742499,16.9974907 L11.2617716,16.9974907 L11.2617716,21.6108851 L11.2267336,21.6108851 C11.4438193,21.9849441 11.5756168,22.1880581 11.5756168,22.5484017 C11.5756168,22.9970231 11.3724964,23.3952713 11.0534142,23.6637209 L10.655777,23.2644753 C10.8748578,23.100014 11.0165058,22.8369259 11.0165058,22.5416686 C11.0165058,22.0432973 10.6123848,21.6385655 10.1138734,21.6385655 C9.61523715,21.6385655 9.21111615,22.0425492 9.21111615,22.5409205 C9.21111615,22.8338087 9.3506445,23.0940291 9.56685735,23.2591138 L9.1695943,23.655741 C8.8532552,23.387416 8.65998535,22.9871729 8.65998535,22.5406711 C8.65998535,22.1800783 8.7679671,21.8500335 9.01734755,21.5948006 L9.01734755,14.5119932 C9.01734755,14.2391795 9.2431615,14.020355 9.5148615,14.020355 L22.4891286,14.0221007 C22.7607039,14.0221007 22.9826524,14.2409252 22.9826524,14.5136142 L22.9826524,21.5964215 C23.2320329,21.8515298 23.3400147,22.1815745 23.3400147,22.5424168 C23.3400147,22.9886691 23.1467448,23.389037 22.8304057,23.6573619 L22.8304057,23.6573619 L22.8304057,23.6573619 Z M12.7009461,8.26944715 L19.2990539,8.26944715 C19.5706292,8.26944715 19.8653969,8.42181385 19.8653969,8.6933807 L19.8653969,12.9976777 C19.8653969,13.2676237 19.5706292,13.5062733 19.2990539,13.5062733 L12.7009461,13.5062733 C12.430493,13.5062733 12.1346031,13.2676237 12.1346031,12.9976777 L12.1346031,8.6933807 C12.1346031,8.42181385 12.430493,8.26944715 12.7009461,8.26944715 L12.7009461,8.26944715 L12.7009461,8.26944715 Z M18.6222354,6.901264 L18.2242242,7.46833745 C17.720725,6.98480385 16.9040041,6.66348715 16.0023691,6.66348715 C15.0977415,6.66348715 14.2785268,6.9870482 13.7754017,7.47320025 L13.3777646,6.90550335 C14.0064527,6.33980145 14.9489861,5.98020605 16.0023691,5.98020605 C17.0531336,5.98020605 17.9934226,6.33805585 18.6222354,6.901264 L18.6222354,6.901264 L18.6222354,6.901264 Z M18.6151281,6.0163651 C17.9317009,5.49941555 17.0128587,5.21475665 16.0275565,5.21475665 C15.0422544,5.21475665 14.1232875,5.49941555 13.4399851,6.0163651 C13.2783865,6.1385577 13.1354915,6.2701018 13.0124223,6.40887765 L12.6119173,5.83681675 C13.3844979,5.0450585 14.6266619,4.53147551 16.0275565,4.53147551 C17.395533,4.53147551 18.6122602,5.02124345 19.3880828,5.781456 L18.9894481,6.35064915 C18.8789726,6.2331946 18.7539083,6.121351 18.6151281,6.0163651 L18.6151281,6.0163651 L18.6151281,6.0163651 Z M16.0023691,3.14159692 C17.6990289,3.14159692 19.2075313,3.75143779 20.1655262,4.69705896 L19.7698842,5.26089055 C18.948425,4.39469459 17.5661092,3.82500273 16.0023691,3.82487804 C14.4355118,3.82500273 13.0507021,4.39693895 12.2297418,5.2661274 L11.8344738,4.70142298 C12.792344,3.7531834 14.3028414,3.14159692 16.0023691,3.14159692 L16.0023691,3.14159692 L16.0023691,3.14159692 Z M16,0 C7.1637027,0 0,7.16285595 0,16 C0,24.8353984 7.1637027,32 16,32 C24.8362973,32 32,24.8353984 32,16 C32,7.16285595 24.8362973,0 16,0 L16,0 L16,0 Z" id="e"></path>
                <g id="Fill-4-+-Fill-5" transform="translate(12.899999, 9.500000)">
                    <path d="M1.28300577,1.38553282 C1.04848721,1.38553282 0.857159655,1.19412682 0.857159655,0.95929258 C0.857159655,0.722231245 1.04848721,0.53206252 1.28300577,0.53206252 C1.51950445,0.53206252 1.71021322,0.722231245 1.71021322,0.95929258 C1.71021322,1.19412682 1.51950445,1.38553282 1.28300577,1.38553282 L1.28300577,1.38553282 L1.28300577,1.38553282 Z M1.28300577,0.125 C0.82325037,0.125 0.450000763,0.498161266 0.450000763,0.95929258 C0.450000763,1.4181968 0.82325037,1.79247161 1.28300577,1.79247161 C1.74337997,1.79247161 2.11675333,1.4181968 2.11675333,0.95929258 C2.11675333,0.498161266 1.74337997,0.125 1.28300577,0.125 L1.28300577,0.125 L1.28300577,0.125 Z" id="Fill-4"></path>
                    <path d="M4.93535677,1.38553282 C4.69972439,1.38553282 4.50889186,1.19412682 4.50889186,0.95929258 C4.50889186,0.722231245 4.69972439,0.53206252 4.93535677,0.53206252 C5.17012285,0.53206252 5.36355425,0.722231245 5.36355425,0.95929258 C5.36355425,1.19412682 5.17012285,1.38553282 4.93535677,1.38553282 L4.93535677,1.38553282 L4.93535677,1.38553282 Z M4.93535677,0.125 C4.47386877,0.125 4.10000038,0.498161266 4.10000038,0.95929258 C4.10000038,1.4181968 4.47386877,1.79247161 4.93535677,1.79247161 C5.3958547,1.79247161 5.7692281,1.4181968 5.7692281,0.95929258 C5.7692281,0.498161266 5.3958547,0.125 4.93535677,0.125 L4.93535677,0.125 L4.93535677,0.125 Z" id="Fill-5"></path>
                </g>
            </g>
        </g>
    </g>
</svg>