<?xml version="1.0" encoding="UTF-8" standalone="no"?>
<svg width="50px" height="50px" viewBox="0 0 50 50" version="1.1" xmlns="http://www.w3.org/2000/svg" xmlns:xlink="http://www.w3.org/1999/xlink">
    <defs></defs>
    <g id="Page-1" stroke="none" stroke-width="1" fill="none" fill-rule="evenodd">
        <g id="activities-marker">
            <g id="Pin-+-Treadmill" transform="translate(4.000000, 0.000000)">
                <path d="M36.2587441,34.2023527 C43.7374619,26.2237644 43.6601303,13.771109 35.9681549,6.0791336 C28.1176191,-1.77140214 15.3081096,-1.69012592 7.35731461,6.2606691 C-0.462729236,14.0807129 -0.669955221,26.6009817 6.79490681,34.4802225 L6.78969952,34.4854298 L21.4781736,49.1739039 L36.3542345,34.2978431 L36.2587441,34.2023527 Z" id="Pin" stroke="#FFFFFF" stroke-width="2" fill="#C52D2F"></path>
                <path d="M25.592485,11.3136436 C25.592485,10.0018271 26.6425084,8.93839379 27.937783,8.93839379 C29.2330576,8.93839379 30.283081,10.0018271 30.283081,11.3136436 C30.283081,12.6254602 29.2330576,13.6888934 27.937783,13.6888934 C26.6425084,13.6888934 25.592485,12.6254602 25.592485,11.3136436 L25.592485,11.3136436 Z M32.5452884,18.4645029 C31.6956205,18.298914 29.032032,17.5327263 27.9686069,16.2215884 C27.4995473,15.6413488 26.65524,15.5571971 26.0829873,16.0336043 C25.5100645,16.5086543 25.426974,17.3637442 25.8967037,17.9433052 C27.7602104,20.2439043 31.6091795,21.0460601 32.0413844,21.1295331 C32.1264852,21.1464992 32.2109159,21.1539643 32.2946766,21.1539643 C32.9245566,21.1539643 33.486758,20.7019882 33.6093836,20.0518484 C33.7487613,19.3161996 33.2723308,18.6049819 32.5452884,18.4645029 L32.5452884,18.4645029 Z M11.4469877,29.1178376 C11.6124988,29.12666 11.787391,29.1314105 11.9709943,29.1314105 C14.8228767,29.1314105 19.6856845,27.9451428 20.6506071,23.2781163 C20.8020464,22.5445034 20.3376774,21.825142 19.6133153,21.6710901 C18.8849328,21.52111 18.1793331,21.9886949 18.0265537,22.7216292 C17.2150806,26.6468992 11.8175448,26.4181965 11.5950765,26.4073382 C10.8398906,26.3700129 10.2234123,26.9387156 10.1825371,27.6872586 C10.142332,28.4364802 10.7078838,29.0764404 11.4469877,29.1178376 L11.4469877,29.1178376 Z M14.2626855,15.5049416 C15.4668285,14.7102509 19.0604951,13.5972767 22.0081996,14.6837838 C20.4415405,16.8045425 19.8491853,18.4312494 20.1038176,19.8468982 C20.421438,21.61612 21.9539227,22.4725673 23.1855392,23.1600324 C24.3950429,23.8366393 25.1415177,24.3028669 25.3177501,25.0771983 C25.4913022,25.8413501 25.2400202,27.411051 23.0535324,30.5518099 C22.6266882,31.1646243 22.7720967,32.0108919 23.3771835,32.4431874 C23.6117133,32.6108121 23.8804175,32.690892 24.1477815,32.690892 C24.569265,32.690892 24.9833776,32.4906923 25.2447108,32.1160815 C27.5196499,28.8463805 28.3726683,26.4161606 27.929742,24.4677771 C27.4727439,22.4556012 25.8136131,21.5285751 24.4808138,20.784104 C23.6318159,20.3097326 22.8303941,19.8618284 22.7406027,19.3603114 C22.6762745,19.0040239 22.7781274,17.8767982 25.0999724,15.1194725 C25.3472339,14.8256201 25.4598082,14.4394724 25.4082116,14.0560392 C25.356615,13.6739633 25.1475485,13.3312487 24.8319384,13.1154403 C20.7256566,10.2956794 14.9689552,11.7995519 12.7998896,13.2308095 C12.1793908,13.6393525 12.0044986,14.4808696 12.4085599,15.1086142 C12.8126212,15.7370374 13.6421866,15.9155205 14.2626855,15.5049416 L14.2626855,15.5049416 Z" id="Treadmill" fill="#FFFFFF"></path>
            </g>
        </g>
    </g>
</svg>