<?xml version="1.0" encoding="UTF-8" standalone="no"?>
<svg width="50px" height="50px" viewBox="0 0 50 50" version="1.1" xmlns="http://www.w3.org/2000/svg" xmlns:xlink="http://www.w3.org/1999/xlink">
    <defs></defs>
    <g id="Page-1" stroke="none" stroke-width="1" fill="none" fill-rule="evenodd">
        <g id="bars-marker">
            <g id="Beer" transform="translate(5.000000, 0.000000)">
                <path d="M33.0296847,35.8932354 C33.3807268,35.5884381 33.7235215,35.2691553 34.0572919,34.9353848 C41.7790015,27.2136752 41.7466935,14.6620023 33.9851299,6.90043871 C26.2235663,-0.861124882 13.6718933,-0.893432921 5.95018374,6.82827669 C-1.60390536,14.3823658 -1.73696662,26.5589995 5.52781571,34.3510926 L5.51901565,34.3598927 L20.0410215,48.8818986 L33.0296847,35.8932354 Z" id="Pin" stroke="#FFFFFF" stroke-width="2" fill="#C52D2F"></path>
                <path d="M12.5260536,13.3395952 C12.3608922,11.1349715 14.0111894,9.34777078 16.2324213,9.34777078 L23.7751074,9.34777078 C25.9872392,9.34777078 27.6463578,11.1386923 27.4814751,13.3395952 L26.3514081,28.4240663 C26.1862467,30.6286901 24.2673756,32.4158907 22.0577597,32.4158907 L17.9497691,32.4158907 C15.7436139,32.4158907 13.8210033,30.6249692 13.6561206,28.4240663 L12.5260536,13.3395952 Z M14.1420117,13.0002154 C14.0675737,11.8930381 14.906493,10.9954936 16.0097761,10.9954936 L23.9689326,10.9954936 C25.0749083,10.9954936 25.9109046,11.896464 25.8366969,13.0002154 L24.7768998,28.7634461 C24.7024618,29.8706234 23.7498648,30.7681679 22.6458488,30.7681679 L17.3328598,30.7681679 C16.2303509,30.7681679 15.2760165,29.8671975 15.2018089,28.7634461 L14.1420117,13.0002154 Z M23.7894009,18.8974827 L23.126532,28.6506569 C23.0979279,29.0646788 22.7360239,29.3876159 22.2995005,29.3876159 L17.7812966,29.3876159 C17.3447731,29.3876159 16.9828691,29.0646788 16.954265,28.6506569 L16.2603047,18.4491561 C16.2391625,18.1344994 16.4207364,17.8340378 16.7241886,17.7098312 C16.9965493,17.5986367 17.3422858,17.5217469 17.7800529,17.5217469 C19.394319,17.5217469 20.7275187,18.1486945 22.037089,18.1486945 C22.2995005,18.1486945 22.6887649,18.0919143 23.0593746,18.1096581 C23.4909234,18.1297677 23.818005,18.4881924 23.7894009,18.8974827 Z" id="beer" fill="#FFFFFF"></path>
            </g>
        </g>
    </g>
</svg>