<?xml version="1.0" encoding="UTF-8" standalone="no"?>
<svg width="12px" height="12px" viewBox="0 0 12 12" version="1.1" xmlns="http://www.w3.org/2000/svg" xmlns:xlink="http://www.w3.org/1999/xlink">
    <defs></defs>
    <g id="Page-1" stroke="none" stroke-width="1" fill="none" fill-rule="evenodd">
        <g id="clock" fill="#FFFFFF">
            <path d="M12.2652632,6.13326316 C12.2652632,9.52105263 9.51915789,12.2665263 6.132,12.2665263 C2.74610526,12.2665263 0,9.52105263 0,6.13326316 C0,2.74610526 2.74610526,0 6.132,0 C9.51915789,0 12.2652632,2.74610526 12.2652632,6.13326316 Z M10.6749474,6.13326316 C10.6749474,3.624 8.64126316,1.59157895 6.132,1.59157895 C3.62463158,1.59157895 1.59031579,3.624 1.59031579,6.13326316 C1.59031579,8.64252632 3.62463158,10.6762105 6.132,10.6762105 C8.64126316,10.6762105 10.6749474,8.64252632 10.6749474,6.13326316 Z M5.61284211,6.36884211 L5.61284211,3.66252632 C5.62231579,3.384 5.84968421,3.16168421 6.13073684,3.16168421 C6.41684211,3.16168421 6.64863158,3.39347368 6.64863158,3.67957895 L6.64863158,5.34884211 C6.65621053,5.48968421 6.76610526,5.59957895 6.90442105,5.61284211 L9.32463158,5.61536842 C9.59368421,5.63368421 9.80589474,5.85726316 9.80589474,6.13073684 C9.80589474,6.396 9.60442105,6.61073684 9.34547368,6.63915789 L5.87557895,6.63915789 C5.73347368,6.62778947 5.62168421,6.51221053 5.61284211,6.36884211 Z"></path>
        </g>
    </g>
</svg>