<?xml version="1.0" encoding="UTF-8" standalone="no"?>
<svg width="50px" height="50px" viewBox="0 0 50 50" version="1.1" xmlns="http://www.w3.org/2000/svg" xmlns:xlink="http://www.w3.org/1999/xlink">
    <defs></defs>
    <g id="Page-1" stroke="none" stroke-width="1" fill="none" fill-rule="evenodd">
        <g id="coffeeshops-marker">
            <g id="Coffee" transform="translate(4.000000, 0.000000)">
                <path d="M36.3074546,34.2365376 C43.7946057,26.2452931 43.6727885,13.7312674 35.9158297,5.97430862 C27.998971,-1.94255003 15.1269022,-1.90624523 7.16525935,6.05539766 C-0.648817553,13.8694746 -0.828619951,26.4136385 6.65215882,34.3607162 L6.64553865,34.3673364 L21.458104,49.1799017 L36.3544613,34.2835443 L36.3074546,34.2365376 Z" id="Pin" stroke="#FFFFFF" stroke-width="2" fill="#C52D2F"></path>
                <path d="M22.3722257,8.83214875 C22.3722257,10.3675697 24.4865529,10.9886038 24.4865529,12.7081504 C24.4865529,14.35904 23.4583527,15.2973529 22.8211582,15.7207379 C22.6742724,15.8174819 22.4922169,15.6614432 22.5625565,15.4991629 C22.7704723,15.0185637 23.0425212,14.2851817 23.0425212,13.7411267 C23.0425212,12.1942629 20.9685359,12.0683917 20.9685359,10.1054247 C20.9219876,8.84463185 21.6543475,7.75236084 22.3505032,7.25719799 C22.474632,7.13860856 22.6742724,7.26552005 22.6225521,7.42884057 C22.5004921,7.81373607 22.3722257,8.33594564 22.3722257,8.83214875 L22.3722257,8.83214875 Z M19.4169259,10.2063297 C19.4489925,10.0086807 19.1986661,9.90153408 19.0745373,10.0586131 C18.7880067,10.4227034 18.4776847,10.9469935 18.4776847,11.5087328 C18.4776847,12.811136 19.7831058,12.9203631 19.7831058,13.9023667 C19.7831058,14.1187404 19.7138006,14.3944088 19.6351857,14.6399097 C19.5731213,14.830277 19.8058628,14.9800741 19.9496453,14.8427601 C20.3013436,14.5067567 20.6913149,13.963742 20.6913149,13.2095548 C20.6913149,12.3003693 19.3600335,11.5669873 19.3600335,10.7711899 C19.3600335,10.6109901 19.3858937,10.4039787 19.4169259,10.2063297 L19.4169259,10.2063297 Z M33.3255577,21.45256 C33.3255577,24.3444776 30.8067775,27.1396511 27.1325651,26.6382467 C26.9112021,26.6080792 26.689839,26.6777765 26.5346781,26.8400567 C26.275042,27.1126044 26.0009242,27.3799507 25.7030151,27.6368945 C25.3451104,27.8792746 25.0792679,28.0373938 24.6510235,28.0249107 L17.7525656,28.0249107 C17.3232868,28.0373938 17.0574443,27.8792746 16.6995396,27.6368945 C12.4450251,23.9637431 11.9433378,18.6501047 11.9433378,18.0977277 C11.9433378,17.5453506 12.2908985,17.0481072 12.8598221,17.0481072 L29.5427326,17.0481072 C30.0175252,17.0481072 30.4012901,17.3965937 30.4530104,17.982259 C30.4726642,18.2017535 30.6247219,18.3879597 30.8367753,18.4430934 C31.8939389,18.715641 33.3255577,19.453184 33.3255577,21.45256 L33.3255577,21.45256 Z M28.7245169,25.2723878 C30.5399006,24.9332636 31.9994484,23.3697557 31.9994484,21.3630978 C31.9994484,20.517368 31.5422406,20.1043855 31.0188309,19.9056962 C30.6185155,19.7548588 30.1768239,19.997239 30.0692456,20.4133422 C29.759958,21.5971559 29.2189633,23.0961678 28.2859285,24.5972603 C28.0883568,24.914539 28.358337,25.3410448 28.7245169,25.2723878 L28.7245169,25.2723878 Z M30.4540448,29.0225182 L11.9485099,29.0225182 C11.6950803,29.0225182 11.4892333,29.2295296 11.4892333,29.4854331 C11.4892333,29.6966055 11.6319814,29.8890532 11.8357596,29.9410662 C12.8836135,30.2916331 13.7183797,30.5111276 15.1799963,30.7940778 C15.3289508,30.8325673 15.482043,30.851292 15.6351352,30.851292 L26.7622475,30.851292 C26.9163741,30.851292 27.0684319,30.8325673 27.2173864,30.7940778 C28.5248764,30.5194497 29.64307,30.2874721 30.5667952,29.9410662 C30.7705733,29.8890532 30.9133214,29.6966055 30.9133214,29.4854331 C30.9133214,29.2295296 30.7074745,29.0225182 30.4540448,29.0225182 L30.4540448,29.0225182 Z" fill="#FFFFFF"></path>
            </g>
        </g>
    </g>
</svg>