<?xml version="1.0" encoding="UTF-8" standalone="no"?>
<svg width="50px" height="50px" viewBox="0 0 50 50" version="1.1" xmlns="http://www.w3.org/2000/svg" xmlns:xlink="http://www.w3.org/1999/xlink">
    <defs></defs>
    <g id="Page-1" stroke="none" stroke-width="1" fill="none" fill-rule="evenodd">
        <g id="dispensaries-marker">
            <g id="Cannibas-Copy-2" transform="translate(4.000000, 0.000000)">
                <path d="M35.7809786,34.3370532 C43.1324097,26.4890584 42.9932907,14.1810777 35.3521986,6.53998564 C27.5535951,-1.25861788 14.8937159,-1.24277322 7.07556698,6.57537567 C-0.590436386,14.241379 -0.754855043,26.5625008 6.59375967,34.3912602 L6.58659477,34.3984251 L21.1779029,48.9897332 L35.8057808,34.3618554 L35.7809786,34.3370532 Z" id="Pin" stroke="#FFFFFF" stroke-width="2" fill="#C52D2F"></path>
                <path d="M22.1946664,30.2146326 C25.6641915,29.8551971 28.9839726,30.7150267 31.2266106,32.046954 C27.7543198,32.6711611 24.6015079,31.8552757 22.1946664,30.7629481 L22.1946664,35.7464079 L20.1977091,35.7464079 L20.1977091,30.8701325 C17.7685144,31.9592953 14.7604474,32.7241216 11.2188094,32.1326679 C13.4757697,30.8388464 16.5212242,29.9353093 20.1977091,30.2863051 L20.1977091,30.2707783 C15.309069,29.5275551 11.8763064,27.700982 8.82393219,24.9324024 C8.74346195,24.8591452 8.23460601,24.7761006 8.48222951,24.5035362 C13.5120579,25.2061344 17.3701835,27.0819174 20.4488683,29.7405212 L20.4514964,29.7405212 C16.0966341,25.8364705 12.0783132,20.8700075 10.5342207,13.8747141 C10.9134958,13.7967115 11.071182,14.2590921 11.3040132,14.4750081 C13.1944721,16.2239872 15.2411381,18.1476566 16.7762854,20.3889717 C18.5744403,23.0149614 19.7661099,26.1555311 20.8805635,29.3904158 C20.1326637,25.4546938 18.7907041,21.0269324 18.9992758,16.2747037 C19.1702751,12.3772416 20.4560239,8.88966393 21.2222662,5.645585 C22.1950094,9.03054321 23.1789948,12.7862363 23.3603487,16.7889872 C23.5561991,21.1265859 22.1521117,25.9728329 21.479061,29.3041087 L21.479061,29.4755365 C23.3124216,22.9989456 27.0279574,17.2089558 31.9961073,13.8747141 C30.1591096,20.6923832 26.4912365,25.6754668 21.9087847,29.7405212 L21.9149514,29.7405212 C25.0588633,27.1490945 28.6356042,24.9924366 33.9625988,24.5895467 C34.0918837,24.9632476 33.3490132,25.2189064 32.9366032,25.5323998 C30.1412247,27.6595984 26.6815725,29.6119241 22.1946664,30.2108419 L22.1946664,30.2146326 Z" id="Leaf" fill="#FFFFFF"></path>
            </g>
        </g>
    </g>
</svg>