<?xml version="1.0" encoding="UTF-8" standalone="no"?>
<svg width="50px" height="50px" viewBox="0 0 50 50" version="1.1" xmlns="http://www.w3.org/2000/svg" xmlns:xlink="http://www.w3.org/1999/xlink">
    <defs></defs>
    <g id="Page-1" stroke="none" stroke-width="1" fill="none" fill-rule="evenodd">
        <g id="goods-marker">
            <g id="Local-Goods-Copy" transform="translate(5.000000, 0.000000)">
                <path d="M33.3241636,35.7992413 C33.6796473,35.4905876 34.0267792,35.167265 34.3647727,34.8292715 C42.1841821,27.0098621 42.1514652,14.2993779 34.2916977,6.43961026 C26.4319301,-1.42015734 13.7214458,-1.45287416 5.90203642,6.3665352 C-1.74763159,14.0162032 -1.88237641,26.346903 5.47432434,34.2375865 L5.46541293,34.2464979 L20.17116,48.952245 L33.3241636,35.7992413 Z" id="Pin" stroke="#FFFFFF" stroke-width="2" fill="#C52D2F"></path>
                <path d="M25.8135808,10.2568603 L21.2493128,10.5679198 C20.7491061,10.6029139 20.2772665,10.8225997 19.9226776,11.1871225 L10.474539,20.9009258 C9.93556388,21.4540283 9.93556388,22.3512404 10.474539,22.9053151 L17.8887559,30.5282156 C18.427731,31.0813182 19.3004924,31.0813182 19.8394675,30.5282156 L29.2885517,20.8144123 C29.6431406,20.4498896 29.8568395,19.9648312 29.8899344,19.4506111 L30.1925169,14.7584737 C30.227503,14.2102315 30.0308244,13.6717098 29.6525963,13.2828855 L27.2499021,10.811907 C26.8707284,10.4230827 26.347828,10.2208941 25.8135808,10.2568603 L25.8135808,10.2568603 Z M27.0503867,15.9220305 C26.3572837,16.633579 25.2348917,16.633579 24.5427342,15.9220305 C23.8505768,15.2095099 23.8505768,14.0556738 24.5427342,13.3441253 C25.2348917,12.6325768 26.3572837,12.6325768 27.0503867,13.3441253 C27.7425442,14.0556738 27.7425442,15.2095099 27.0503867,15.9220305 L27.0503867,15.9220305 Z" id="tag" fill="#FFFFFF"></path>
            </g>
        </g>
    </g>
</svg>