<?xml version="1.0" encoding="UTF-8" standalone="no"?>
<svg width="20px" height="20px" viewBox="0 0 20 20" version="1.1" xmlns="http://www.w3.org/2000/svg" xmlns:xlink="http://www.w3.org/1999/xlink">
    <defs></defs>
    <g id="Page-1" stroke="none" stroke-width="1" fill="none" fill-rule="evenodd">
        <g id="icon-drinking" fill="#FFFFFF">
            <path d="M3.5893857,3.98724324 C3.42526094,1.7851496 5.07370265,0 7.29916877,0 L12.7008771,0 C14.9138584,0 16.5742395,1.79246765 16.4106601,3.98724324 L15.5143837,16.0127568 C15.3502589,18.2148504 13.4234768,20 11.21285,20 L8.78719579,20 C6.5756491,20 4.64924145,18.2075324 4.48566211,16.0127568 L3.5893857,3.98724324 Z M4.9615163,3.42862546 C4.88763296,2.32402612 5.7254925,1.42857143 6.82971874,1.42857143 L13.1454684,1.42857143 C14.2511315,1.42857143 15.0874149,2.32610932 15.0136709,3.42862546 L14.1345917,16.5713745 C14.0607083,17.6759739 13.111177,18.5714286 11.9961087,18.5714286 L7.97907841,18.5714286 C6.87191024,18.5714286 5.91433947,17.6738907 5.84059546,16.5713745 L4.9615163,3.42862546 Z M13.2653069,8.27957541 L12.6935523,16.735552 C12.6688799,17.094508 12.3567212,17.3744936 11.9801999,17.3744936 L8.08304318,17.3744936 C7.70652185,17.3744936 7.39436314,17.094508 7.3696908,16.735552 L6.77111843,7.89087739 C6.75288235,7.61807087 6.90949807,7.35757141 7.17123939,7.24988462 C7.40616296,7.15347931 7.70437643,7.08681606 8.08197047,7.08681606 C9.4743485,7.08681606 10.624294,7.63037793 11.753858,7.63037793 C11.9801999,7.63037793 12.3159582,7.58114968 12.6356259,7.59653351 C13.0078564,7.61396851 13.2899792,7.92472181 13.2653069,8.27957541 Z" id="beer"></path>
        </g>
    </g>
</svg>