<?xml version="1.0" encoding="UTF-8" standalone="no"?>
<svg width="20px" height="20px" viewBox="0 0 20 20" version="1.1" xmlns="http://www.w3.org/2000/svg" xmlns:xlink="http://www.w3.org/1999/xlink">
    <defs></defs>
    <g id="Page-1" stroke="none" stroke-width="1" fill="none" fill-rule="evenodd">
        <g id="icon-hydrate" fill="#FFFFFF">
            <path d="M10.481041,1.08606978 C10.2194952,0.811585283 9.78142901,0.811585283 9.51895899,1.08606978 C8.05596587,2.61930136 3.75386038,7.57573352 3.75386038,12.8741161 C3.75386038,16.8037729 7.15857716,19.1197936 9.9995379,19.1197936 C12.8404986,19.1197936 16.2461396,16.8037729 16.2461396,12.8741161 C16.2461396,7.57573352 11.9449583,2.61930136 10.481041,1.08606978 L10.481041,1.08606978 Z M11.1362919,16.7335344 C10.8054318,16.8250293 10.4745717,16.8324228 10.1141375,16.8324228 C7.85911335,16.8324228 6.0301409,14.9674069 6.0301409,12.6661733 C6.0301409,12.3473276 6.06710851,12.0367997 6.13549858,11.7401347 C6.2473256,11.255859 6.93861989,11.2826605 7.03011472,11.7706329 C7.42012299,13.8556061 9.05963645,15.4951195 11.1168839,15.8490844 C11.5678887,15.9276406 11.5780548,16.6106171 11.1362919,16.7335344 L11.1362919,16.7335344 Z" id="droplet"></path>
        </g>
    </g>
</svg>