<?xml version="1.0" encoding="UTF-8" standalone="no"?>
<svg width="20px" height="20px" viewBox="0 0 20 20" version="1.1" xmlns="http://www.w3.org/2000/svg" xmlns:xlink="http://www.w3.org/1999/xlink">
    <defs></defs>
    <g id="Page-1" stroke="none" stroke-width="1" fill="none" fill-rule="evenodd">
        <g id="icon-sun" fill="#FFFFFF">
            <path d="M18.8028535,10.0004858 C18.8044536,8.95826737 19.8832726,7.69444506 19.8832726,7.69444506 C20.0920763,7.44964074 20.0122749,7.17023581 19.7058695,7.07263409 C19.7058695,7.07263409 18.03664,6.54122471 17.4868303,5.67760947 C16.9382206,4.81339421 17.1780249,3.30656762 17.1780249,3.30656762 C17.2288258,2.98896201 17.0102219,2.77075816 16.6930163,2.82115905 C16.6930163,2.82115905 15.1863897,3.06096328 14.3225745,2.51295361 C13.4583592,1.96334391 12.9267498,0.293714442 12.9267498,0.293714442 C12.8291481,-0.0124909623 12.5495432,-0.0924923742 12.3049389,0.116311311 C12.3049389,0.116311311 11.0415166,1.19513035 9.99949817,1.19693038 C8.95747978,1.19513035 7.69405748,0.116111308 7.69405748,0.116111308 C7.44945317,-0.0926923778 7.16984823,-0.0128909693 7.07224651,0.293514439 C7.07224651,0.293514439 6.54083713,1.96314391 5.67702188,2.51295361 C4.81280663,3.06116329 3.30638004,2.82115905 3.30638004,2.82115905 C2.98897444,2.77075816 2.77057059,2.98896201 2.82097148,3.30656762 C2.82097148,3.30656762 3.06077571,4.81319421 2.51276604,5.67720946 C1.96315634,6.54122471 0.293326865,7.07263409 0.293326865,7.07263409 C-0.0128785396,7.17023581 -0.092679948,7.44984074 0.115923734,7.69444506 C0.115923734,7.69444506 1.19474277,8.95786736 1.19654281,9.99988575 C1.19514278,11.0421041 0.115923734,12.3057264 0.115923734,12.3057264 C-0.0928799515,12.5501308 -0.0130785431,12.8299357 0.293326865,12.9271374 C0.293326865,12.9271374 1.96275633,13.4585468 2.51276604,14.322362 C3.06097571,15.1865773 2.82117148,16.6930039 2.82117148,16.6930039 C2.77057059,17.0106095 2.98897444,17.2288133 3.30638004,17.1784124 C3.30638004,17.1784124 4.81300664,16.9388082 5.67682188,17.4866179 C6.54083713,18.0364276 7.07224651,19.7060571 7.07224651,19.7060571 C7.16984823,20.0122625 7.44945317,20.0922639 7.69405748,19.8834602 C7.69405748,19.8834602 8.95727978,18.8048412 9.99929817,18.8030411 C11.0417166,18.8046412 12.3051389,19.8836602 12.3051389,19.8836602 C12.5499432,20.0924639 12.8295481,20.0122625 12.9271498,19.7062571 C12.9271498,19.7062571 13.4585592,18.0370276 14.3221745,17.4874179 C15.1861897,16.9388082 16.6928163,17.1786125 16.6928163,17.1786125 C17.0102219,17.2290133 17.2286258,17.0108095 17.1782249,16.6932039 C17.1782249,16.6932039 16.9386206,15.1869773 17.4864303,14.3229621 C18.03584,13.4587468 19.7058695,12.9271374 19.7058695,12.9271374 C20.0120749,12.8295357 20.0918763,12.5501308 19.8832726,12.3053264 C19.8832726,12.3053264 18.8044536,11.0421041 18.8028535,10.0004858 L18.8028535,10.0004858 Z M9.99949817,17.5382188 C5.83622469,17.5382188 2.46116513,14.1631592 2.46116513,9.99988575 C2.46116513,5.83681228 5.83602469,2.4615527 9.99949817,2.4615527 C14.1629717,2.4615527 17.5378312,5.83661227 17.5378312,9.99988575 C17.5378312,14.1631592 14.1629717,17.5382188 9.99949817,17.5382188 L9.99949817,17.5382188 Z M16.4974129,9.99988575 C16.4974129,13.5885491 13.5883615,16.4978004 9.99969818,16.4978004 C6.41103484,16.4978004 3.50178349,13.5885491 3.50178349,9.99988575 C3.50178349,6.41142242 6.41083484,3.50217107 9.99949817,3.50217107 C13.5881615,3.50217107 16.4974129,6.41142242 16.4974129,9.99988575 L16.4974129,9.99988575 Z" id="Sun"></path>
        </g>
    </g>
</svg>