<svg width="50" height="50" viewBox="0 0 50 50" xmlns="http://www.w3.org/2000/svg"><g fill="none" fill-rule="evenodd"><path d="M38.294 35.67c.25-.228.498-.463.74-.705 7.94-7.94 7.923-20.826-.036-28.784-7.96-7.957-20.846-7.974-28.784-.036-7.772 7.772-7.92 20.288-.453 28.278l-.006.01 14.89 14.89 13.65-13.65z" stroke="#fff" stroke-width="2" fill="#C52D2F"/><path d="M20.64 7.263c.322-.317.87-.103.87.348l-.01 24.573c0 2.36-3.654 2.333-3.654 0 0-.614.353-5.248.512-7.302.047-.61-.09-1.212-.374-1.753-.374-.717-.846-1.81-.846-2.773 0-1.49-.212-9.43 3.5-13.09zm7.607-.068c-.268 0-.488.21-.5.477l-.293 6.458c0 .376-.306.68-.683.68-.375 0-.68-.304-.68-.68-.033-2.378.067-4.272.225-6.398.022-.29-.207-.537-.5-.537-.24 0-.595.167-.642.402-.218 1.094-.786 4.265-.786 7.595 0 1.438.82 2.812 2.16 3.46.32.152.5.5.483.854l-.615 12.66c0 1.012.82 1.83 1.833 1.83s1.834-.818 1.834-1.83L29.5 19.49c-.016-.35.16-.694.475-.85 1.326-.652 2.136-2.018 2.136-3.446 0-3.33-.566-6.5-.784-7.595-.047-.236-.395-.403-.635-.403-.29 0-.522.247-.5.537.16 2.126.26 4.02.226 6.398 0 .376-.304.68-.68.68-.378 0-.684-.304-.684-.68l-.292-6.458c-.012-.267-.242-.477-.51-.477z" fill="#fff"/></g></svg>