<?xml version="1.0" encoding="UTF-8" standalone="no"?>
<svg width="50px" height="50px" viewBox="0 0 50 50" version="1.1" xmlns="http://www.w3.org/2000/svg" xmlns:xlink="http://www.w3.org/1999/xlink">
    <defs></defs>
    <g id="Page-1" stroke="none" stroke-width="1" fill="none" fill-rule="evenodd">
        <g id="neighborhoods-marker">
            <g id="Cannibas-Copy-2" transform="translate(5.000000, 0.000000)">
                <path d="M34.7809786,34.3370532 C42.1324097,26.4890584 41.9932907,14.1810777 34.3521986,6.53998564 C26.5535951,-1.25861788 13.8937159,-1.24277322 6.07556698,6.57537567 C-1.59043639,14.241379 -1.75485504,26.5625008 5.59375967,34.3912602 L5.58659477,34.3984251 L20.1779029,48.9897332 L34.8057808,34.3618554 L34.7809786,34.3370532 Z" id="Pin" stroke="#FFFFFF" stroke-width="2" fill="#C52D2F"></path>
                <path d="M20.0718667,10.5263158 C18.0593667,10.5263158 16.2872,11.5796491 15.2542333,13.1763743 C12.0746,13.1861988 9.5,15.8245614 9.5,19.0781287 C9.5,22.3375439 12.0844,24.9796491 15.2719667,24.9796491 C16.0195667,24.9796491 16.7335667,24.834386 17.3892333,24.5698246 L18.3132333,25.8596491 L17.9443333,31.2844444 C17.9443333,31.2844444 18.4453,31.5789474 19.9122667,31.5789474 C21.3792333,31.5789474 22.0556667,31.2844444 22.0556667,31.2844444 L21.6552667,25.6909942 L22.6016667,24.3698246 C23.2599,24.6367251 23.9771667,24.7831579 24.7282667,24.7831579 C27.9158333,24.7833918 30.5,22.1410526 30.5,18.8818713 C30.5,15.6322807 27.9314667,12.9962573 24.7572,12.980117 C23.7090667,11.4938012 22.0010667,10.5263158 20.0718667,10.5263158 Z M19.192922,22.9948884 L18.9415317,24.5352369 L18.1301817,23.9463857 C18.5113749,23.6607733 18.8669361,23.3425195 19.192922,22.9948884 Z M20.4722195,22.437373 L20.4722195,22.437373 C20.8862742,22.9220981 21.3552075,23.3565553 21.8698183,23.732258 L20.7893328,24.5159784 L20.4722195,22.437373 L20.4722195,22.437373 Z" id="Shape" fill="#FFFFFF"></path>
            </g>
        </g>
    </g>
</svg>