<?xml version="1.0" encoding="UTF-8" standalone="no"?>
<svg width="50px" height="50px" viewBox="0 0 50 50" version="1.1" xmlns="http://www.w3.org/2000/svg" xmlns:xlink="http://www.w3.org/1999/xlink">
    <defs></defs>
    <g id="Page-1" stroke="none" stroke-width="1" fill="none" fill-rule="evenodd">
        <g id="office-marker">
            <g id="Cannibas-Copy-2" transform="translate(5.000000, 0.000000)" stroke="#C52D2F" stroke-width="2" fill="#FFFFFF">
                <path d="M34.7809786,34.3370532 C42.1324097,26.4890584 41.9932907,14.1810777 34.3521986,6.53998564 C26.5535951,-1.25861788 13.8937159,-1.24277322 6.07556698,6.57537567 C-1.59043639,14.241379 -1.75485504,26.5625008 5.59375967,34.3912602 L5.58659477,34.3984251 L20.1779029,48.9897332 L34.8057808,34.3618554 L34.7809786,34.3370532 Z" id="Pin"></path>
            </g>
            <g id="Ralph" transform="translate(16.176923, 6.500000)">
                <path d="M16.7066418,23.9619444 L16.253942,23.5060453 C16.5003266,23.3164932 16.6593257,23.0173363 16.6593257,22.6807848 C16.6593257,22.1079737 16.198811,21.6434782 15.6305919,21.6434782 C15.0625148,21.6434782 14.6020002,22.1079737 14.6020002,22.6807848 C14.6020002,23.0199152 14.7634147,23.3209347 15.0130674,23.5102002 L14.5599414,23.9666724 C14.1963323,23.6583459 13.9648672,23.2043094 13.9648672,22.6886649 C13.9648672,22.2746019 14.1150567,22.040205 14.3624359,21.6103818 L14.3225085,21.6103818 L14.3225085,16.3092293 L13.612057,16.3092293 L13.612057,27.3932228 L14.0383279,27.6756166 L14.0383279,28.6308269 L9.06516723,28.6308269 L9.06516723,27.6756166 L9.65754171,27.4846318 L9.77561875,27.4846318 L9.77561875,24.0460464 L8.07053509,24.0460464 L8.07053509,27.3932228 L8.78098662,27.6756166 L8.78098662,28.5715114 L3.80782594,28.5798213 L3.80782594,27.6756166 L4.25612085,27.3615591 L4.2215929,16.3092293 L3.52364533,16.3092293 L3.52364533,21.6103818 L3.48371795,21.6103818 C3.73109717,22.040205 3.88128662,22.2735989 3.88128662,22.6876619 C3.88128662,23.2031632 3.64982152,23.6607816 3.28621243,23.9692514 L2.83308644,23.5104868 C3.08273911,23.3215078 3.2441537,23.0191989 3.2441537,22.6799251 C3.2441537,22.1072574 2.78363902,21.6421887 2.21556198,21.6421887 C1.64734285,21.6421887 1.18682817,22.1063977 1.18682817,22.6790655 C1.18682817,23.015617 1.34582722,23.3146307 1.59221181,23.504326 L1.1395121,23.9600818 C0.779028991,23.6517553 0.558789018,23.1918445 0.558789018,22.6787789 C0.558789018,22.2644294 0.681839222,21.8851821 0.966019833,21.5918994 L0.966019833,13.4531976 C0.966019833,13.1397132 1.22334538,12.8882667 1.53296015,12.8882667 L16.3177406,12.8902725 C16.6272133,12.8902725 16.880134,13.1417191 16.880134,13.4550602 L16.880134,21.593762 C17.1643146,21.8869014 17.2873648,22.2661487 17.2873648,22.6807848 C17.2873648,23.1935638 17.0671249,23.6536179 16.7066418,23.9619444 L16.7066418,23.9619444 Z M5.16365163,6.28002194 L12.6825022,6.28002194 C12.9919749,6.28002194 13.3278764,6.45510325 13.3278764,6.76715487 L13.3278764,11.7131301 C13.3278764,12.0233192 12.9919749,12.2975464 12.6825022,12.2975464 L5.16365163,12.2975464 C4.85545776,12.2975464 4.51827746,12.0233192 4.51827746,11.7131301 L4.51827746,6.76715487 C4.51827746,6.45510325 4.85545776,6.28002194 5.16365163,6.28002194 L5.16365163,6.28002194 Z M11.911236,4.70787205 L11.4576838,5.35948398 C10.8839231,4.80386589 9.95323164,4.43464779 8.92577664,4.43464779 C7.89491147,4.43464779 6.96137817,4.80644483 6.38804379,5.36507168 L5.9349178,4.71274338 C6.65133712,4.06270747 7.72539774,3.64950412 8.92577664,3.64950412 C10.1231716,3.64950412 11.1946746,4.06070162 11.911236,4.70787205 L11.911236,4.70787205 Z M11.9031369,3.6910537 C11.1243399,3.09703807 10.0772765,2.76994264 8.95447888,2.76994264 C7.83168129,2.76994264 6.78447574,3.09703807 6.00582087,3.6910537 C5.82167183,3.8314626 5.65883634,3.98261708 5.51859321,4.14208148 L5.06219915,3.48473857 C5.94259068,2.57494619 7.3580943,1.98479897 8.95447888,1.98479897 C10.5133516,1.98479897 11.8998688,2.54758078 12.7839547,3.42112474 L12.329692,4.07517234 C12.2038,3.94020786 12.0612834,3.81169073 11.9031369,3.6910537 L11.9031369,3.6910537 Z M8.92577664,0.387719335 C10.8591994,0.387719335 12.5782079,1.08847438 13.6698877,2.17506736 L13.2190352,2.82295416 C12.2829443,1.82762697 10.7077312,1.17300627 8.92577664,1.172863 C7.14026986,1.17300627 5.56221493,1.8302059 4.62669237,2.82897168 L4.1762661,2.18008197 C5.26780382,1.09048022 6.98908578,0.387719335 8.92577664,0.387719335 L8.92577664,0.387719335 Z" id="e" fill="#C52D2F"></path>
                <path d="M6.99249595,9.26958539 C6.72323482,9.26958539 6.50356321,9.0479399 6.50356321,8.77600511 C6.50356321,8.50149138 6.72323482,8.28127864 6.99249595,8.28127864 C7.26403052,8.28127864 7.48299168,8.50149138 7.48299168,8.77600511 C7.48299168,9.0479399 7.26403052,9.26958539 6.99249595,9.26958539 L6.99249595,9.26958539 Z M6.99249595,7.80990589 C6.46463046,7.80990589 6.0360861,8.24202145 6.0360861,8.77600511 C6.0360861,9.30740983 6.46463046,9.74081486 6.99249595,9.74081486 C7.52107188,9.74081486 7.94975833,9.30740983 7.94975833,8.77600511 C7.94975833,8.24202145 7.52107188,7.80990589 6.99249595,7.80990589 L6.99249595,7.80990589 Z" id="Fill-4" fill="#FFFFFF"></path>
                <path d="M10.8316339,9.26958539 C10.561094,9.26958539 10.3419907,9.0479399 10.3419907,8.77600511 C10.3419907,8.50149138 10.561094,8.28127864 10.8316339,8.28127864 C11.1011792,8.28127864 11.3232664,8.50149138 11.3232664,8.77600511 C11.3232664,9.0479399 11.1011792,9.26958539 10.8316339,9.26958539 L10.8316339,9.26958539 Z M10.8316339,7.80990589 C10.3017792,7.80990589 9.87252434,8.24202145 9.87252434,8.77600511 C9.87252434,9.30740983 10.3017792,9.74081486 10.8316339,9.74081486 C11.3603519,9.74081486 11.7890384,9.30740983 11.7890384,8.77600511 C11.7890384,8.24202145 11.3603519,7.80990589 10.8316339,7.80990589 L10.8316339,7.80990589 Z" id="Fill-5" fill="#FFFFFF"></path>
            </g>
        </g>
    </g>
</svg>