<?xml version="1.0" encoding="UTF-8" standalone="no"?>
<svg width="28px" height="15px" viewBox="0 0 28 15" version="1.1" xmlns="http://www.w3.org/2000/svg" xmlns:xlink="http://www.w3.org/1999/xlink">
    <defs></defs>
    <g id="Page-1" stroke="none" stroke-width="1" fill="none" fill-rule="evenodd">
        <g id="picks" fill="#FFFFFF">
            <path d="M16.1908147,9.42776201 C21.1871223,6.18028736 21.7753959,3.32457404 21.9955967,1.0490741 C22.0542633,0.439146283 21.5182271,-0.0644351466 20.8937891,0.00672309886 C19.3282741,0.185009692 16.5476365,0.421161232 14.000058,0.421161232 C11.4524796,0.421161232 8.67184201,0.185009692 7.10632695,0.00672309886 C6.48108531,-0.0644351466 5.9450491,0.439146283 6.00451938,1.0490741 C6.22472016,3.32457404 6.81299379,6.18028736 11.8093013,9.42776201 C12.5735749,9.92508777 13.0413006,10.7883702 13.0356751,11.683713 C13.0332641,12.1020609 12.7407346,12.460198 12.3252462,12.5688903 C11.5063244,12.783147 10.2598593,13.2249537 10.2478045,13.9326263 C10.2461972,14.4659222 11.4765892,15 14.0008617,15 C16.5251342,15 17.7531152,14.4659222 17.7523115,13.9326263 C17.7402568,13.2249537 16.4937917,12.783147 15.6748698,12.5688903 C15.2593815,12.460198 14.966852,12.0746923 14.964441,11.6563444 C14.9588155,10.7610017 15.4265412,9.92508777 16.1908147,9.42776201 L16.1908147,9.42776201 Z M17.8495535,5.87532345 C18.2296811,4.38021834 18.3397815,2.98520394 18.3727313,2.12426737 C18.3880007,1.72937821 18.6966032,1.40330141 19.0984295,1.3485643 L20.2773877,1.18904472 C20.5120542,1.15698441 20.732255,1.335271 20.7202002,1.56594883 C20.6326021,3.25967146 19.6907214,5.07068791 18.4900645,6.24284406 C18.2144117,6.51183787 17.7563298,6.24362602 17.8495535,5.87532345 L17.8495535,5.87532345 Z M9.5245173,6.24284406 C8.32386048,5.07068791 7.38197976,3.25967146 7.29438163,1.56594883 C7.28232685,1.335271 7.50252763,1.15698441 7.73719416,1.18904472 L8.91615237,1.3485643 C9.31797861,1.40330141 9.62658117,1.72937821 9.64185057,2.12426737 C9.67480032,2.98520394 9.78490071,4.38021834 10.1642247,5.87532345 C10.258252,6.24362602 9.80017011,6.51183787 9.5245173,6.24284406 L9.5245173,6.24284406 Z" id="trophy"></path>
        </g>
    </g>
</svg>