<?xml version="1.0" encoding="UTF-8" standalone="no"?>
<svg width="50px" height="50px" viewBox="0 0 50 50" version="1.1" xmlns="http://www.w3.org/2000/svg" xmlns:xlink="http://www.w3.org/1999/xlink">
    <defs></defs>
    <g id="Page-1" stroke="none" stroke-width="1" fill="none" fill-rule="evenodd">
        <g id="restaurants-marker">
            <g id="Restaurant-Copy-5" transform="translate(4.000000, 0.000000)">
                <path d="M34.293792,35.6698712 C34.5452949,35.4421785 34.7924597,35.2070599 35.0350045,34.964515 C42.9732409,27.0262786 42.9566339,14.1392474 34.9979117,6.18052525 C27.0391895,-1.77819693 14.1521584,-1.79480393 6.21392194,6.14343248 C-1.55797374,13.9153282 -1.7049106,26.4307938 5.76116661,34.4207113 L5.75273516,34.4291427 L20.6436278,49.3200354 L34.293792,35.6698712 Z" id="Pin" stroke="#FFFFFF" stroke-width="2" fill="#C52D2F"></path>
                <path d="M16.6393038,7.2631839 C16.9615703,6.94610537 17.5088772,7.15967029 17.5088772,7.61077171 C17.5077848,12.3615016 17.5023226,31.3371808 17.5023226,32.1816339 C17.5023226,34.5406546 13.8481481,34.5145038 13.8481481,32.1816339 C13.8481481,31.5681796 14.2010026,26.9340387 14.3604972,24.8801107 C14.4074716,24.2699252 14.2687332,23.6673671 13.9857941,23.1258275 C13.6121834,22.4088595 13.1402542,21.3159737 13.1402542,20.3527523 C13.1402542,18.8632459 12.928323,10.9221176 16.6393038,7.2631839 L16.6393038,7.2631839 Z M24.2469784,7.19453803 C23.9793333,7.19453803 23.7586627,7.40483411 23.7455536,7.67179026 L23.4538751,14.1299499 C23.4538751,14.5058678 23.147995,14.8109605 22.771107,14.8109605 C22.3942191,14.8109605 22.088339,14.5058678 22.088339,14.1299499 C22.0555661,11.7524057 22.1560696,9.85756186 22.3144718,7.73171919 C22.3363203,7.44188108 22.1069103,7.19453803 21.8141393,7.19453803 C21.5748974,7.19453803 21.2187656,7.36233904 21.1717912,7.59660669 C20.9543978,8.69058211 20.3863348,11.862457 20.3863348,15.1923264 C20.3863348,16.6295312 21.2056565,18.0035382 22.5471591,18.6507706 C22.8672408,18.8044066 23.0453067,19.1519944 23.0289202,19.5061199 L22.4149752,32.1674689 C22.4149752,33.1775438 23.2353893,33.9958461 24.2480708,33.9958461 C25.2607524,33.9958461 26.0822589,33.1775438 26.0822589,32.1674689 L25.4999943,19.4875965 C25.4836079,19.1378294 25.6594889,18.7935105 25.9752009,18.6387849 C27.3014095,17.9861043 28.1108993,16.6197246 28.1108993,15.1923264 C28.1108993,11.862457 27.5428363,8.69058211 27.325443,7.59660669 C27.2784685,7.36233904 26.9299837,7.19453803 26.6896494,7.19453803 C26.3979709,7.19453803 26.1674684,7.44188108 26.1893169,7.73171919 C26.3488116,9.85756186 26.449315,11.7524057 26.4154497,14.1299499 C26.4154497,14.5058678 26.1106621,14.8109605 25.7337741,14.8109605 C25.3568861,14.8109605 25.0510061,14.5058678 25.0510061,14.1299499 L24.7582351,7.67179026 C24.7462184,7.40483411 24.5157159,7.19453803 24.2469784,7.19453803 L24.2469784,7.19453803 Z" id="Food" fill="#FFFFFF"></path>
            </g>
        </g>
    </g>
</svg>